<?xml version="1.0" encoding="UTF-8" standalone="no"?>
<!-- menu by Niklas Bäversten from the Noun Project -->
<svg
   version="1.1"
   x="0px"
   y="0px"
   viewBox="0 0 250 179.39999"
   xml:space="preserve"
   id="svg81"
   sodipodi:docname="menu.svg"
   inkscape:version="1.1 (c4e8f9ed74, 2021-05-24)"
   width="250"
   height="179.39999"
   xmlns:inkscape="http://www.inkscape.org/namespaces/inkscape"
   xmlns:sodipodi="http://sodipodi.sourceforge.net/DTD/sodipodi-0.dtd"
   xmlns="http://www.w3.org/2000/svg"
   xmlns:svg="http://www.w3.org/2000/svg"><defs
     id="defs85" /><sodipodi:namedview
     id="namedview83"
     pagecolor="#ffffff"
     bordercolor="#666666"
     borderopacity="1.0"
     inkscape:pageshadow="2"
     inkscape:pageopacity="0.0"
     inkscape:pagecheckerboard="0"
     showgrid="false"
     inkscape:zoom="1.5846154"
     inkscape:cx="-74.781553"
     inkscape:cy="107.59709"
     inkscape:window-width="1366"
     inkscape:window-height="730"
     inkscape:window-x="1920"
     inkscape:window-y="18"
     inkscape:window-maximized="1"
     inkscape:current-layer="svg81"
     fit-margin-top="0"
     fit-margin-left="0"
     fit-margin-right="0"
     fit-margin-bottom="0" /><path
     d="M 240,20 H 10 C 4.5,20 0,15.5 0,10 0,4.5 4.5,0 10,0 h 230 c 5.5,0 10,4.5 10,10 0,5.5 -4.5,10 -10,10 z"
     id="path71" /><path
     d="M 240,99.4 H 10 c -5.5,0 -10,-4.5 -10,-10 0,-5.5 4.5,-10 10,-10 h 230 c 5.5,0 10,4.5 10,10 0,5.5 -4.5,10 -10,10 z"
     id="path73" /><path
     d="M 240,179.4 H 10 c -5.5,0 -10,-4.5 -10,-10 0,-5.5 4.5,-10 10,-10 h 230 c 5.5,0 10,4.5 10,10 0,5.5 -4.5,10 -10,10 z"
     id="path75" /></svg>
