<?xml version="1.0" encoding="UTF-8" standalone="no"?>
<!-- Created with Inkscape (http://www.inkscape.org/) -->

<svg
   version="1.1"
   id="svg854"
   xml:space="preserve"
   width="323pt"
   height="322.76764pt"
   viewBox="0 0 430.66666 430.35684"
   xmlns="http://www.w3.org/2000/svg"
   xmlns:svg="http://www.w3.org/2000/svg"><defs
     id="defs858" /><g
     id="g860"
     transform="matrix(1.3333333,0,0,-1.3333333,-121.31136,959.29686)"><g
       id="g1439"
       style="display:inline"
       transform="translate(1.0160812,7.0939349e-4)"><path
         d="m 105.6,561.9 0.18,6.48 c 1.02,0 1.86,0.24 2.46,0.6 0.96,0.66 1.5,1.56 1.62,2.88 0.06,0.96 -0.06,1.74 -0.48,2.34 -0.42,0.54 -0.9,0.84 -1.5,0.9 -0.6,0.06 -1.08,-0.12 -1.62,-0.6 -0.48,-0.48 -1.02,-1.56 -1.56,-3.36 -0.96,-2.94 -2.04,-4.92 -3.3,-6.12 -1.2,-1.14 -2.7,-1.68 -4.38,-1.5 -1.14,0.06 -2.16,0.54 -3.12,1.26 -0.96,0.72 -1.62,1.8 -2.1,3.18 -0.42,1.38 -0.54,3.18 -0.36,5.46 0.24,2.82 0.96,4.92 2.16,6.3 1.2,1.38 2.94,2.1 5.22,2.16 l -0.18,-6.42 c -1.02,-0.12 -1.8,-0.36 -2.28,-0.9 -0.48,-0.48 -0.78,-1.2 -0.9,-2.16 -0.06,-0.84 0.06,-1.44 0.36,-1.86 0.3,-0.42 0.66,-0.66 1.14,-0.72 0.36,0 0.72,0.12 1.02,0.42 0.3,0.3 0.66,1.02 1.02,2.22 0.9,2.88 1.74,4.98 2.52,6.18 0.78,1.2 1.68,2.1 2.7,2.58 1.02,0.48 2.1,0.66 3.3,0.54 1.44,-0.12 2.7,-0.6 3.78,-1.5 1.14,-0.9 1.92,-2.1 2.4,-3.54 0.48,-1.44 0.66,-3.24 0.48,-5.34 -0.36,-3.72 -1.32,-6.24 -2.88,-7.56 -1.56,-1.32 -3.48,-1.98 -5.7,-1.92 z m 9.36,35.7 -1.92,-7.5 3.24,-1.92 -1.68,-6.72 -19.32,13.5 1.86,7.2 23.4,2.52 -1.74,-6.9 z m -4.98,-0.18 -8.28,-0.36 7.08,-4.32 z m -10.5,13.56 2.82,6.54 16.5,-1.68 -12.6,10.74 2.7,6.36 17.04,-16.26 -2.94,-6.78 z m 20.16,18.66 c -3,1.92 -4.86,4.32 -5.46,7.08 -0.6,2.76 0.06,5.64 1.98,8.64 1.98,3.12 4.32,4.98 7.08,5.58 2.7,0.6 5.58,-0.06 8.58,-1.98 2.16,-1.38 3.72,-2.88 4.62,-4.5 0.96,-1.62 1.32,-3.36 1.26,-5.22 -0.12,-1.86 -0.84,-3.84 -2.16,-5.94 -1.32,-2.04 -2.76,-3.6 -4.32,-4.5 -1.56,-0.96 -3.36,-1.44 -5.34,-1.38 -1.98,0.12 -4.08,0.84 -6.24,2.22 z m 3.72,5.7 c 1.86,-1.2 3.42,-1.68 4.74,-1.5 1.26,0.18 2.22,0.84 3,2.04 0.78,1.26 1.02,2.46 0.66,3.66 -0.36,1.14 -1.62,2.4 -3.66,3.78 -1.8,1.08 -3.3,1.56 -4.56,1.38 -1.26,-0.18 -2.28,-0.9 -3,-2.1 -0.78,-1.14 -0.96,-2.34 -0.6,-3.6 0.42,-1.2 1.5,-2.4 3.42,-3.66 z m 3.36,24.42 4.56,5.04 12.36,-11.1 7.08,7.92 4.08,-3.66 L 143.1,645 Z m 37.8,11.22 -6,-4.92 1.5,-3.48 -5.4,-4.38 -7.56,22.26 5.7,4.74 20.4,-11.76 -5.52,-4.56 z m -4.14,2.82 -6.9,4.56 3.18,-7.68 z m 2.7,18.84 5.82,3.66 11.76,-18.66 -5.76,-3.66 z m 16.86,-6.6 5.7,3.18 c 0.6,-0.9 1.2,-1.5 1.8,-1.86 1.02,-0.48 2.1,-0.48 3.3,0.12 0.9,0.42 1.5,0.96 1.74,1.56 0.3,0.66 0.3,1.26 0.06,1.8 -0.24,0.48 -0.72,0.84 -1.38,1.08 -0.6,0.18 -1.86,0.06 -3.66,-0.36 -3,-0.66 -5.34,-0.78 -6.96,-0.36 -1.62,0.48 -2.82,1.5 -3.54,3.06 -0.48,1.02 -0.66,2.1 -0.48,3.3 0.12,1.2 0.72,2.34 1.62,3.42 0.96,1.08 2.46,2.1 4.56,3.12 2.52,1.2 4.68,1.62 6.48,1.32 1.8,-0.3 3.3,-1.44 4.5,-3.36 l -5.58,-3.12 c -0.6,0.84 -1.26,1.32 -1.92,1.5 -0.72,0.18 -1.5,0.06 -2.34,-0.36 -0.72,-0.36 -1.2,-0.72 -1.38,-1.2 -0.24,-0.48 -0.24,-0.96 -0.06,-1.38 0.18,-0.3 0.42,-0.54 0.84,-0.66 0.42,-0.12 1.26,0 2.46,0.24 2.94,0.72 5.16,1.08 6.6,1.02 1.44,-0.06 2.64,-0.36 3.6,-1.02 0.96,-0.6 1.68,-1.44 2.16,-2.58 0.66,-1.26 0.84,-2.58 0.66,-4.02 -0.18,-1.38 -0.84,-2.7 -1.8,-3.84 -1.02,-1.14 -2.46,-2.22 -4.38,-3.12 -3.42,-1.62 -6.06,-2.1 -7.98,-1.38 -1.92,0.66 -3.48,1.98 -4.62,3.9 z"
         style="display:inline;fill:#000000;fill-opacity:1;stroke:#000000;stroke-width:0.75;stroke-linecap:round;stroke-linejoin:round;stroke-miterlimit:10;stroke-dasharray:none;stroke-opacity:1"
         id="path938" /><path
         d="m 197.4,710.04 17.52,5.16 1.32,-4.56 -10.98,-3.18 0.96,-3.36 10.2,2.94 1.26,-4.32 -10.2,-2.94 1.26,-4.2 11.28,3.3 1.38,-4.8 -17.82,-5.16 z m 24.06,6.6 6.36,0.78 9.66,-11.16 -1.44,12.12 6.42,0.72 2.58,-21.9 -6.42,-0.72 -9.6,11.04 1.44,-12 -6.36,-0.78 z m 37.68,-8.46 c 0.48,3.54 1.86,6.18 4.14,7.92 2.22,1.68 5.1,2.34 8.7,1.86 3.6,-0.48 6.3,-1.86 7.98,-4.02 1.74,-2.22 2.34,-5.1 1.86,-8.64 -0.36,-2.58 -1.02,-4.62 -2.1,-6.12 -1.08,-1.5 -2.52,-2.64 -4.26,-3.3 -1.74,-0.72 -3.84,-0.9 -6.24,-0.54 -2.46,0.3 -4.5,0.96 -6,1.98 -1.5,1.02 -2.64,2.4 -3.42,4.26 -0.78,1.8 -0.96,4.02 -0.66,6.6 z m 6.78,-0.96 c -0.3,-2.22 -0.12,-3.84 0.6,-4.92 0.66,-1.08 1.74,-1.68 3.12,-1.92 1.44,-0.18 2.64,0.18 3.54,1.02 0.96,0.78 1.56,2.46 1.92,4.92 0.24,2.04 0.06,3.6 -0.66,4.68 -0.72,1.02 -1.74,1.68 -3.18,1.86 -1.38,0.18 -2.52,-0.18 -3.48,-1.02 -0.96,-0.84 -1.56,-2.4 -1.86,-4.62 z m 18.06,-6.48 6.3,-1.56 c -0.18,-1.02 -0.12,-1.86 0.12,-2.52 0.42,-1.08 1.26,-1.8 2.46,-2.22 0.96,-0.3 1.74,-0.3 2.4,0 0.6,0.3 1.02,0.72 1.2,1.26 0.18,0.54 0.06,1.14 -0.24,1.74 -0.36,0.54 -1.38,1.32 -3,2.22 -2.64,1.56 -4.38,3 -5.28,4.44 -0.9,1.5 -1.08,3 -0.6,4.68 0.36,1.08 1.02,1.98 1.92,2.76 0.9,0.78 2.1,1.2 3.54,1.38 1.44,0.18 3.24,-0.12 5.46,-0.78 2.64,-0.84 4.56,-1.98 5.7,-3.42 1.08,-1.44 1.38,-3.3 1.02,-5.58 l -6.24,1.56 c 0.12,1.02 0,1.8 -0.42,2.4 -0.36,0.6 -1.02,1.02 -1.98,1.32 -0.72,0.24 -1.32,0.24 -1.86,0.06 -0.48,-0.24 -0.78,-0.54 -0.9,-1.02 -0.12,-0.3 -0.06,-0.66 0.18,-1.02 0.24,-0.36 0.84,-0.84 1.92,-1.44 2.7,-1.56 4.5,-2.76 5.58,-3.78 1.02,-1.02 1.68,-2.1 1.92,-3.18 0.3,-1.14 0.24,-2.22 -0.12,-3.36 -0.42,-1.38 -1.2,-2.52 -2.28,-3.42 -1.08,-0.9 -2.4,-1.44 -3.96,-1.62 -1.5,-0.12 -3.3,0.06 -5.34,0.72 -3.54,1.08 -5.82,2.58 -6.78,4.38 -0.96,1.8 -1.2,3.78 -0.72,6 z m 33,-16.74 -6.9,3.48 -2.64,-2.76 -6.18,3.12 17.28,16.02 6.66,-3.36 -2.46,-23.46 -6.42,3.24 z m 0.9,4.92 1.38,8.16 -5.7,-6 z m 19.08,5.1 5.46,-4.14 -5.04,-6.6 10.74,2.34 7.26,-5.46 -11.46,-1.8 -1.56,-16.02 -6.72,5.04 1.74,10.02 -4.98,-0.84 -3.24,-4.26 -5.46,4.08 z m 32.22,-27.96 4.68,-4.98 -9.6,-9 c -0.96,-0.9 -1.98,-1.56 -3.12,-2.1 -1.08,-0.48 -2.28,-0.72 -3.48,-0.66 -1.26,0 -2.34,0.24 -3.24,0.72 -1.26,0.66 -2.52,1.62 -3.78,3 -0.72,0.78 -1.5,1.68 -2.28,2.7 -0.72,1.02 -1.26,1.98 -1.5,2.94 -0.3,0.9 -0.36,1.92 -0.24,3 0.12,1.08 0.42,1.98 0.84,2.76 0.78,1.26 1.5,2.28 2.34,3.06 l 9.54,9 4.68,-4.98 -9.84,-9.24 c -0.84,-0.78 -1.32,-1.68 -1.32,-2.64 -0.06,-0.96 0.36,-1.86 1.14,-2.7 0.84,-0.84 1.68,-1.32 2.64,-1.32 0.9,-0.06 1.86,0.36 2.7,1.2 z m 9.24,-10.86 3.48,-5.34 -5.64,-13.62 10.2,6.66 3.54,-5.34 -18.48,-12.06 -3.54,5.4 5.64,13.5 -10.14,-6.6 -3.48,5.34 z"
         style="fill:#000000;fill-opacity:1;stroke:#000000;stroke-width:0.75;stroke-linecap:round;stroke-linejoin:round;stroke-miterlimit:10;stroke-dasharray:none;stroke-opacity:1"
         id="path940" /><path
         d="m 393.48,630.96 2.46,-5.88 -7.98,-12.42 11.28,4.8 2.46,-5.94 -20.28,-8.58 -2.52,5.88 7.92,12.36 -11.16,-4.74 -2.46,5.94 z m -4.44,-43.5 -1.8,7.56 -3.78,0.18 -1.62,6.78 23.4,-3.06 1.68,-7.2 -19.56,-13.14 -1.62,6.96 z m 4.32,2.46 7.14,4.2 -8.28,0.54 z m 16.08,-11.28 0.36,-6.36 -11.64,-9.06 12.18,0.78 0.36,-6.42 -22.02,-1.38 -0.36,6.42 11.58,9 -12.06,-0.72 -0.42,6.36 z m -14.28,-36 -0.72,-6.48 c -1.02,0.06 -1.86,-0.06 -2.52,-0.42 -0.96,-0.54 -1.56,-1.44 -1.8,-2.76 -0.18,-0.96 -0.06,-1.74 0.3,-2.34 0.36,-0.6 0.84,-0.9 1.44,-1.02 0.54,-0.12 1.08,0.06 1.62,0.48 0.54,0.42 1.14,1.5 1.86,3.24 1.14,2.82 2.4,4.74 3.72,5.82 1.32,1.08 2.82,1.44 4.5,1.2 1.14,-0.24 2.16,-0.72 3,-1.56 0.9,-0.78 1.5,-1.92 1.86,-3.3 0.36,-1.38 0.3,-3.24 -0.06,-5.52 -0.48,-2.76 -1.38,-4.8 -2.64,-6.06 -1.32,-1.26 -3.12,-1.86 -5.4,-1.74 l 0.72,6.36 c 1.02,0 1.8,0.24 2.34,0.72 0.54,0.48 0.84,1.14 1.02,2.1 0.12,0.78 0.06,1.38 -0.18,1.86 -0.24,0.48 -0.66,0.72 -1.08,0.78 -0.36,0.06 -0.72,-0.06 -1.02,-0.3 -0.36,-0.3 -0.78,-0.96 -1.2,-2.1 -1.14,-2.82 -2.16,-4.86 -3,-6 -0.9,-1.14 -1.86,-1.98 -2.94,-2.34 -1.02,-0.42 -2.16,-0.54 -3.36,-0.3 -1.38,0.24 -2.58,0.84 -3.66,1.8 -1.02,0.96 -1.68,2.22 -2.1,3.66 -0.36,1.5 -0.36,3.3 0,5.4 0.66,3.72 1.8,6.18 3.48,7.32 1.68,1.2 3.6,1.68 5.82,1.5 z m -0.48,-23.76 c 3.36,-1.2 5.7,-3.06 6.9,-5.64 1.26,-2.52 1.26,-5.52 0.12,-8.88 -1.26,-3.48 -3.12,-5.82 -5.64,-7.02 -2.46,-1.2 -5.4,-1.26 -8.76,-0.06 -2.46,0.84 -4.32,1.92 -5.58,3.3 -1.26,1.38 -2.04,2.94 -2.4,4.8 -0.3,1.86 -0.06,3.96 0.72,6.3 0.84,2.34 1.92,4.14 3.18,5.4 1.32,1.26 2.94,2.1 4.86,2.52 1.98,0.36 4.14,0.12 6.6,-0.72 z m -2.28,-6.42 c -2.1,0.72 -3.78,0.9 -4.98,0.42 -1.2,-0.48 -1.98,-1.38 -2.46,-2.7 -0.48,-1.38 -0.42,-2.64 0.24,-3.66 0.6,-1.08 2.1,-2.04 4.44,-2.88 1.92,-0.66 3.54,-0.78 4.68,-0.3 1.2,0.48 2.04,1.38 2.52,2.76 0.42,1.26 0.36,2.46 -0.3,3.6 -0.66,1.08 -2.04,2.04 -4.14,2.76 z m 2.28,-24.18 -3.06,-6.06 -19.68,9.9 3.06,6.12 z m -5.34,-10.86 -11.46,-17.22 -4.56,3 3.84,5.76 -13.8,9.18 3.72,5.7 13.86,-9.18 3.84,5.82 z m -36.3,-17.7 5.16,5.76 -1.98,3.24 4.62,5.16 10.92,-20.88 -4.98,-5.52 -21.96,8.52 4.74,5.34 z m 4.5,-2.16 7.5,-3.48 -4.26,7.14 z m -0.06,-19.62 -4.98,-3.96 -14.1,4.44 7.62,-9.6 -5.04,-3.96 -13.68,17.28 5.04,3.96 13.98,-4.32 -7.5,9.48 4.98,3.96 z m -22.8,-17.22 -5.64,-3 -13.08,6.84 5.76,-10.74 -5.64,-3.06 -10.38,19.5 5.64,3 13.02,-6.78 -5.7,10.68 5.64,3 z"
         style="fill:#000000;fill-opacity:1;stroke:#000000;stroke-width:0.75;stroke-linecap:round;stroke-linejoin:round;stroke-miterlimit:10;stroke-dasharray:none;stroke-opacity:1"
         id="path942" /><path
         d="m 306.66,418.62 c 1.08,-3.42 0.96,-6.36 -0.3,-8.88 -1.32,-2.52 -3.66,-4.32 -7.08,-5.46 -3.48,-1.08 -6.48,-1.02 -9,0.24 -2.46,1.26 -4.26,3.6 -5.34,6.96 -0.78,2.46 -1.02,4.62 -0.72,6.48 0.36,1.8 1.14,3.42 2.4,4.8 1.32,1.38 3.12,2.4 5.46,3.18 2.34,0.78 4.44,1.02 6.24,0.72 1.8,-0.24 3.42,-1.02 4.92,-2.34 1.44,-1.32 2.64,-3.24 3.42,-5.7 z m -6.54,-2.04 c -0.66,2.16 -1.56,3.54 -2.64,4.2 -1.08,0.66 -2.28,0.78 -3.66,0.36 -1.38,-0.42 -2.34,-1.26 -2.82,-2.4 -0.42,-1.14 -0.3,-2.88 0.42,-5.22 0.66,-1.98 1.5,-3.3 2.58,-3.96 1.14,-0.66 2.34,-0.78 3.72,-0.36 1.32,0.42 2.22,1.26 2.7,2.4 0.48,1.2 0.42,2.88 -0.3,4.98 z m -18.18,-16.62 -6.78,-0.96 -2.34,16.44 -10.5,-1.5 -0.78,5.4 17.28,2.46 z m -22.8,-2.88 -6.84,0.06 0.06,16.62 h -10.62 v 5.46 l 17.46,-0.06 z m -22.62,0.66 -6.78,0.72 2.46,21.9 6.78,-0.72 z m -13.86,1.5 -6.18,1.56 -5.1,13.86 -2.94,-11.88 -6.24,1.56 5.34,21.42 6.24,-1.56 5.1,-13.74 2.88,11.76 6.24,-1.56 z m -27.36,7.56 -16.68,7.38 1.92,4.32 10.44,-4.62 1.38,3.18 -9.66,4.32 1.8,4.08 9.72,-4.26 1.74,3.96 -10.74,4.74 1.98,4.56 17.04,-7.5 z m -22.68,10.5 -5.34,3.48 -0.24,14.76 -6.72,-10.2 -5.34,3.54 12.12,18.42 5.34,-3.54 0.3,-14.64 6.6,10.14 5.34,-3.54 z m -20.22,32.94 -4.74,4.5 c 0.66,0.78 1.08,1.56 1.14,2.22 0.18,1.14 -0.18,2.16 -1.08,3.12 -0.66,0.72 -1.32,1.14 -2.04,1.2 -0.66,0.06 -1.26,-0.12 -1.68,-0.54 -0.42,-0.36 -0.6,-0.9 -0.6,-1.56 0,-0.72 0.48,-1.86 1.44,-3.42 1.56,-2.7 2.4,-4.8 2.46,-6.54 0.06,-1.68 -0.54,-3.12 -1.8,-4.32 -0.84,-0.72 -1.86,-1.26 -3.06,-1.44 -1.14,-0.24 -2.4,-0.06 -3.72,0.54 -1.32,0.54 -2.76,1.68 -4.32,3.36 -1.98,2.04 -3.06,3.96 -3.3,5.76 -0.24,1.8 0.36,3.54 1.86,5.34 l 4.68,-4.44 c -0.66,-0.78 -0.9,-1.56 -0.9,-2.22 0.06,-0.72 0.42,-1.44 1.08,-2.16 0.54,-0.54 1.08,-0.9 1.62,-0.96 0.48,-0.06 0.96,0.06 1.26,0.42 0.3,0.24 0.42,0.6 0.36,1.02 0,0.42 -0.3,1.14 -0.96,2.22 -1.56,2.58 -2.58,4.62 -2.94,6 -0.42,1.38 -0.48,2.64 -0.18,3.72 0.36,1.08 0.9,2.04 1.8,2.88 1.02,0.96 2.28,1.56 3.66,1.8 1.38,0.24 2.82,0.06 4.2,-0.54 1.44,-0.6 2.88,-1.68 4.32,-3.24 2.58,-2.7 3.84,-5.1 3.78,-7.14 -0.06,-2.04 -0.84,-3.9 -2.34,-5.58 z m -28.14,9.18 -10.32,15.12 3.9,2.64 6.48,-9.42 2.88,1.92 -6,8.82 3.72,2.52 6,-8.76 3.6,2.4 -6.66,9.78 4.14,2.76 10.5,-15.36 z m -19.74,33.9 -2.88,6.12 11.94,5.58 c 1.2,0.54 2.4,0.84 3.6,0.96 1.2,0.12 2.4,0 3.54,-0.42 1.2,-0.42 2.1,-1.02 2.82,-1.74 1.02,-0.96 1.92,-2.34 2.7,-4.02 0.42,-0.96 0.84,-2.04 1.26,-3.24 0.42,-1.26 0.6,-2.34 0.54,-3.3 -0.06,-0.96 -0.3,-1.92 -0.78,-2.88 -0.42,-1.02 -0.96,-1.8 -1.68,-2.4 -1.08,-0.96 -2.1,-1.68 -3.12,-2.16 l -11.88,-5.52 -2.88,6.18 12.18,5.64 c 1.14,0.54 1.8,1.2 2.16,2.1 0.3,0.9 0.24,1.86 -0.24,2.94 -0.54,1.08 -1.2,1.74 -2.1,2.1 -0.84,0.3 -1.86,0.24 -3,-0.3 z"
         style="fill:#000000;fill-opacity:1;stroke:#000000;stroke-width:0.75;stroke-linecap:round;stroke-linejoin:round;stroke-miterlimit:10;stroke-dasharray:none;stroke-opacity:1"
         id="path944" /><path
         d="m 120.42,512.16 -21.36,-5.58 -2.88,10.98 c -0.48,2.04 -0.72,3.66 -0.66,4.8 0.06,1.2 0.48,2.22 1.26,3.12 0.78,0.9 1.86,1.56 3.18,1.92 1.2,0.3 2.28,0.3 3.24,0 1.02,-0.3 1.92,-0.78 2.7,-1.56 0.48,-0.48 0.96,-1.14 1.44,-2.04 0.06,0.84 0.18,1.44 0.36,1.92 0.06,0.3 0.36,0.72 0.84,1.32 0.42,0.6 0.78,1.02 1.08,1.26 l 5.34,4.8 1.92,-7.44 -5.58,-5.22 c -0.72,-0.66 -1.2,-1.2 -1.38,-1.62 -0.18,-0.54 -0.18,-1.14 -0.06,-1.74 l 0.18,-0.6 8.64,2.28 z m -14.4,3.3 -0.78,2.76 c -0.06,0.3 -0.3,0.9 -0.72,1.68 -0.18,0.42 -0.54,0.72 -0.96,0.9 -0.42,0.18 -0.84,0.24 -1.32,0.12 -0.72,-0.18 -1.2,-0.54 -1.44,-1.08 -0.24,-0.54 -0.24,-1.44 0.12,-2.64 l 0.72,-2.88 z m 3.84,32.04 0.72,-7.68 3.78,-0.72 0.66,-6.9 -22.74,6.06 -0.78,7.38 21.18,10.44 0.66,-7.08 z m -4.62,-1.86 -7.62,-3.18 8.1,-1.62 z"
         style="fill:#000000;fill-opacity:1;stroke:#000000;stroke-width:0.75;stroke-linecap:round;stroke-linejoin:round;stroke-miterlimit:10;stroke-dasharray:none;stroke-opacity:1"
         id="path946" /></g><path
       d="m 253.01608,683.10071 c -69.6,0 -126,-56.4 -126,-126 0,-69.6 56.4,-126 126,-126 69.54,0 125.94,56.4 125.94,126 0,69.6 -56.4,126 -125.94,126"
       style="display:none;fill:#ffffff;fill-opacity:1;fill-rule:evenodd;stroke:none"
       id="path948" /><path
       d="m 253.01608,684.00071 c -69.6,0 -126,-56.4 -126,-126 0,-69.6 56.4,-126 126,-126 69.54,0 125.94,56.4 125.94,126 0,69.6 -56.4,126 -125.94,126 z"
       style="display:inline;fill:none;stroke:#000000;stroke-width:3;stroke-linecap:round;stroke-linejoin:round;stroke-miterlimit:10;stroke-dasharray:none;stroke-opacity:1"
       id="path966" /><g
       id="layer1"
       style="display:inline"><path
         d="m 145.01608,620.10071 c 1.44,-13.44 2.88,-26.88 11.46,-40.32 8.58,-13.44 31.5,-25.74 40.08,-40.32 8.58,-14.58 9.54,-39.24 11.46,-47.04"
         style="display:inline;fill:none;stroke:#000000;stroke-width:4;stroke-linecap:butt;stroke-linejoin:round;stroke-miterlimit:10;stroke-dasharray:none;stroke-opacity:1"
         id="path978" /><path
         d="m 239.39608,635.94071 c 3,-17.04 6,-34.14 12.9,-44.04 6.84,-9.96 21.54,-5.7 28.38,-15.6 6.9,-9.96 10.74,-36.72 12.9,-44.1 m 4.38,123.9 c 1.02,-18 1.98,-36 6,-46.26 4.02,-10.32 13.02,-5.16 18,-15.48 4.98,-10.26 10.02,-38.52 12,-46.26 m -7.58564,113.09371 c -0.54,-5.52 -1.02,-11.04 0,-16.56 0.96,-5.58 3,-13.86 6,-16.62 3,-2.76 9.96,-2.76 12,0 1.98,2.76 0.96,9.66 0,16.62"
         style="display:inline;fill:none;stroke:#000000;stroke-width:4;stroke-linecap:butt;stroke-linejoin:round;stroke-miterlimit:10;stroke-dasharray:none;stroke-opacity:1"
         id="path974" /><path
         d="m 215.93608,611.94071 c -6.9,15.96 -18,26.52 -24.9,23.58 -6.84,-2.94 -6.78,-18.3 0.06,-34.26 6.9,-15.96 18,-26.52 24.84,-23.58 6.9,2.94 6.84,18.3 0,34.26 z"
         style="display:inline;fill:none;stroke:#000000;stroke-width:4;stroke-linecap:round;stroke-linejoin:round;stroke-miterlimit:10;stroke-dasharray:none;stroke-opacity:1"
         id="path972" /><path
         d="m 136.01608,604.26504 c 0.17315,-13.81486 0,-24.72433 9,-38.22433 9,-13.5 36,-23.94 45,-44.94 9,-21 9.11112,-47.11412 9.11112,-77.11412 m -72.11112,131.11412 c 0,-8.22 0,-16.5 9,-27 9,-10.5 36,-19.5 45,-36 9,-16.5 7.5,-52.5 9,-63 m -61.45389,88.89958 c 16.94614,-10.48232 34.45389,-21.45958 43.45389,-34.89958 9,-13.5 8.88541,-28.82856 9.00021,-44.7863 -0.0161,-1.36014 -0.4655,-2.2048 -0.88478,-3.55456 m -44.11543,66.34086 c 11.22,-9 23.33319,-19.34918 27.58319,-27.84918 4.25,-8.5 2.09666,-17 0,-25.5 m 44.41681,17.34918 0.0331,-44.89727 m -17.85295,226.6443 -0.18015,-19.74703 m 27,-72 c 6,2.28 12,4.5 18,-18 6,-22.5 11.93232,-69.72868 18,-116.79 0.17369,-1.34718 0.85955,-2.03109 1.5,-3.21 0.45343,-0.83464 0.87347,-1.43752 1.14,-2.22 0.26287,-1.05768 0.40915,-1.95883 0.48192,-3.03926 m 16.62279,1.54177 c -10.5,54.72 -20.82471,108.17749 -26.82471,133.67749 -6,25.5 -6,7.5 -9,18 -3,10.5 -4.5,34.5 -9,45 -4.5,10.5 -15,12 -18,18 -3,6 -1.75993,12.00645 -0.4514,17.61111 0.64975,2.78295 1.5314,5.24889 2.6714,7.70889 0.83043,1.86572 1.89302,4.40743 1.89302,4.40743 m 21.13081,4.77859 c 0,0 -0.49918,-11.65342 -0.16383,-17.46602 0.35121,-6.08752 2.27411,-18.15101 2.27411,-18.15101 m 60.66589,-125.84899 c 3.78,-12 7.5,-24 9,-36 1.5,-12 0.76557,-24.07353 0,-35.43 -0.13734,-2.03736 -0.0183,-2.90245 -0.0183,-5.48245 m -53.9217,239.81245 c -2.28,-19.5 -4.5,-39.9 0,-54.9 4.5,-15 19.5,-24 27,-36 7.5,-12 10.5,-18 17.94,-36 7.5,-18 22.5,-55.5 27,-72 4.5,-16.5 2.56726,-21.85923 0,-26.79 -1.22586,-2.35443 -3.0837,-3.38438 -3.0837,-6.20438 M 270.72323,682.7056 c -6,-15.72 -11.76715,-31.10489 -8.76715,-44.60489 3,-13.5 13.5,-10.5 27,-36 13.5,-25.5 45.07168,-95.96942 54,-117 4.59113,-10.81437 4.09271,-10.86028 4.09271,-10.86028 m 6.98919,8.47191 c -9,19.5 -43.5419,93.40837 -55.5419,120.40837 -12,27 -16.5,33 -18.06,45 -1.5,12 3.78,19.5 9.03,26.7 0.87,1.08 1.6963,2.0579 2.7763,3.1379 m 13.38629,-5.46741 c 0,0 -4.44247,-4.19893 -6.92681,-8.65388 -1.18388,-2.12295 -1.10578,-5.9835 -1.10578,-5.9835 m 63.36,-163.75311 -18.36,36.21 c -0.98407,1.94081 -2.84255,3.91539 -4.44,5.79 -1.40324,1.64669 -1.56,2.7 -2.28,4.92 -0.24,0.72 -0.61692,2.37696 -0.61692,2.37696 m -18.43002,123.00177 c -4.5,-4.5 -9.87306,-10.35873 -9.87306,-19.35873 0,-9 4.5,-27 9,-36 4.5,-8.94 12,-4.44 18,-17.94 6,-13.5 12,-49.5 18,-63 6,-13.5 12,-15.72 18,-18 m -47.20735,150.9173 c -4.5,-4.5 -6.79265,-6.9773 -6.79265,-15.9773 0,-9 4.5,-28.5 9,-35.94 4.5,-7.5 12,4.44 18,-9 6,-13.5 13.5,-58.5 18,-72 4.5,-13.5 8.09225,-9.35227 9.06732,-9.03902 1.08573,0.34879 1.91268,-1.34098 2.57268,-2.54098 M 333.1289,627.73254 c -1.5,-3 -2.17282,-4.63183 0.82718,-7.63183 3,-3 12,6 18,-9 6,-15 10.06585,-48.42612 18.21,-80.79 0.7092,-2.81829 2.07,-3.93 3.93,-5.79 m -11.78076,95.89545 c 3,-17.22 4.64076,-25.81545 7.64076,-36.31545 3,-10.5 5.66088,-13.39615 8.66088,-17.17615 m -223.31438,70.25258 c 0,0 -1.7904,-6.02181 -1.8565,-7.77643 -0.45469,-12.0691 -0.93,-22.8 8.07,-36.3 9.06,-13.5 37.44,-28.5 46.44,-45 9.06,-16.5 6.48,-36 7.74,-54 1.32,-18 0.13325,-45.00248 -0.09,-53.43 -0.0349,-1.31614 -0.33672,-3.08652 -0.33672,-3.08652 m -42.85423,217.00138 c 0,-2.16 -0.42836,-4.69265 -0.57905,-7.09486 -0.87043,-13.87568 -1.32,-27.39 0.18,-36.39 1.5,-9 1.5,-9 9,-18 7.5,-9 28.5,-25.5 36,-36 7.5,-10.5 6,-6 9,-27 3,-21 7.50069,-80.50894 9.00069,-97.00894 m -7.76657,248.10626 c 0,-2.82 -0.29707,-3.92034 -1.52825,-6.3503 -1.09054,-2.1524 -2.70587,-3.74702 0.29413,-18.74702 3,-15 12,-57 18,-72 6,-15 10.5,6 17.94,-18 7.5,-24 15.69511,-75.33028 27,-125.61 0.56017,-2.49142 1.3828,-3.15703 1.3828,-3.15703 m -154.3228,83.76703 c -0.78,0.18 -1.56,0.18 -2.28,0.42 -1.02,0.36 -1.38,1.08 -2.58,1.08"
         style="display:inline;fill:none;stroke:#000000;stroke-width:0.75;stroke-linecap:round;stroke-linejoin:round;stroke-miterlimit:10;stroke-dasharray:none;stroke-opacity:1"
         id="path976" /></g></g></svg>
