<?xml version="1.0" encoding="UTF-8" standalone="no"?>
<!-- Icon from countryflags.com -->

<svg
   version="1.1"
   id="svg806"
   xml:space="preserve"
   width="400"
   height="266.66666"
   viewBox="0 0 400 266.66666"
   xmlns="http://www.w3.org/2000/svg"
   xmlns:svg="http://www.w3.org/2000/svg"><defs
     id="defs810"><clipPath
       clipPathUnits="userSpaceOnUse"
       id="clipPath820"><path
         d="M 40,200 C 18,200 0,182 0,160 V 160 40 C 0,18 18,0 40,0 v 0 h 220 c 22,0 40,18 40,40 v 0 120 c 0,22 -18,40 -40,40 v 0 z"
         id="path818" /></clipPath></defs><g
     id="g812"
     transform="matrix(1.3333333,0,0,-1.3333333,0,266.66667)"><g
       id="g814"
       style="display:inline"><g
         id="g816"
         clip-path="url(#clipPath820)"
         style="display:inline"><path
           d="M 349.79,0.023 H -50 V 199.9997 L 349.7905,200 Z"
           style="display:inline;fill:#ffffff;fill-opacity:1;fill-rule:nonzero;stroke:none"
           id="path822" /><g
           id="g824"
           transform="translate(129.9037,80.0738)"
           style="display:inline"><path
             d="M 0,0 V -80.051 H 39.984 V 0 H 219.887 V 39.979 H 39.984 v 79.947 H 0 V 39.979 H -179.904 V 0 Z"
             style="display:inline;fill:#cf142b;fill-opacity:1;fill-rule:nonzero;stroke:none"
             id="path826" /></g><g
           id="g828"
           transform="translate(183.2199,135.2671)"
           style="display:inline"><path
             d="M 0,0 V 64.733 H 129.44 Z"
             style="fill:#00247d;fill-opacity:1;fill-rule:nonzero;stroke:none"
             id="path830" /></g><g
           id="g832"
           transform="translate(183.2199,64.7556)"
           style="display:inline"><path
             d="M 0,0 V -64.733 H 129.44 Z"
             style="fill:#00247d;fill-opacity:1;fill-rule:nonzero;stroke:none"
             id="path834" /></g><g
           id="g836"
           transform="translate(116.571,64.7556)"
           style="display:inline"><path
             d="M 0,0 V -64.733 H -129.44 Z"
             style="fill:#00247d;fill-opacity:1;fill-rule:nonzero;stroke:none"
             id="path838" /></g><g
           id="g840"
           transform="translate(116.571,135.2671)"
           style="display:inline"><path
             d="M 0,0 V 64.733 H -129.44 Z"
             style="fill:#00247d;fill-opacity:1;fill-rule:nonzero;stroke:none"
             id="path842" /></g><g
           id="g844"
           transform="translate(-49.9993,181.4102)"
           style="display:inline"><path
             d="M 0,0 V -48.068 H 96.116 Z"
             style="fill:#00247d;fill-opacity:1;fill-rule:nonzero;stroke:none"
             id="path846" /></g><g
           id="g848"
           transform="translate(349.7905,181.4102)"
           style="display:inline"><path
             d="M 0,0 V -48.068 H -96.116 Z"
             style="fill:#00247d;fill-opacity:1;fill-rule:nonzero;stroke:none"
             id="path850" /></g><g
           id="g852"
           transform="translate(349.7903,18.6124)"
           style="display:inline"><path
             d="M 0,0 V 48.068 H -96.116 Z"
             style="fill:#00247d;fill-opacity:1;fill-rule:nonzero;stroke:none"
             id="path854" /></g><g
           id="g856"
           transform="translate(-49.9995,18.6124)"
           style="display:inline"><path
             d="M 0,0 V 48.068 H 96.116 Z"
             style="fill:#00247d;fill-opacity:1;fill-rule:nonzero;stroke:none"
             id="path858" /></g><g
           id="g860"
           transform="translate(349.7905,200)"
           style="display:inline"><path
             d="m 0,0 h -22.205 l -133.052,-66.658 22.205,0.001 L 0.21,0"
             style="fill:#cf142b;fill-opacity:1;fill-rule:nonzero;stroke:none"
             id="path862" /></g><g
           id="g864"
           transform="translate(105.257,66.6834)"
           style="display:inline"><path
             d="m 0,0 h -22.205 l -133.052,-66.658 22.205,0.001 L 0.21,0"
             style="fill:#cf142b;fill-opacity:1;fill-rule:nonzero;stroke:none"
             id="path866" /></g><g
           id="g868"
           transform="translate(61.023,133.2907)"
           style="display:inline"><path
             d="M 0,0 H 22.205 L -111.023,66.709 V 55.529 Z"
             style="fill:#cf142b;fill-opacity:1;fill-rule:nonzero;stroke:none"
             id="path870" /></g><g
           id="g872"
           transform="translate(238.6967,66.7092)"
           style="display:inline"><path
             d="m 0,0 h -22.205 l 133.228,-66.709 v 11.18 z"
             style="display:inline;fill:#cf142b;fill-opacity:1;fill-rule:nonzero;stroke:none"
             id="path874" /></g></g></g></g></svg>
